<svg width="71" height="34" viewBox="0 0 71 34" fill="none" xmlns="http://www.w3.org/2000/svg">
<path d="M14.7508 10.7538C15.3785 10.5415 16.0523 10.4308 16.7538 10.4308C19.8185 10.4308 22.3754 12.6092 22.9569 15.4985L27.2954 14.6123C26.2985 9.70154 21.96 6 16.7538 6C15.5631 6 14.4185 6.19385 13.3477 6.55385L14.7508 10.7538Z" fill="#FFF100"/>
<path d="M9.62769 24.8215L12.5631 21.4985C11.2523 20.3354 10.4308 18.6462 10.4308 16.7538C10.4308 14.8708 11.2523 13.1723 12.5631 12.0185L9.62769 8.70461C7.40308 10.68 6 13.5508 6 16.7631C6 19.9662 7.40308 22.8461 9.62769 24.8215Z" fill="#00A3DF"/>
<path d="M22.9569 18.0277C22.3661 20.9169 19.8184 23.0862 16.7538 23.0862C16.0523 23.0862 15.3784 22.9754 14.7415 22.7631L13.3384 26.9631C14.4092 27.323 15.5631 27.5169 16.7538 27.5169C21.96 27.5169 26.2984 23.8246 27.2954 18.9138L22.9569 18.0277Z" fill="#EE4023"/>
<path d="M41.7507 21C41.0308 21.7016 40.0616 22.1262 38.9907 22.1077C38.2523 22.0985 37.5694 21.8769 36.9969 21.5077L35.5569 23.797C36.5445 24.4154 37.6983 24.7846 38.9539 24.8031C40.7723 24.8308 42.4337 24.1108 43.6431 22.9385L41.7507 21ZM39.1478 11.6677C35.5292 11.6123 32.5385 14.5108 32.4831 18.1292C32.4646 19.4862 32.8523 20.76 33.5446 21.8123L45.4338 16.7261C44.7693 13.8738 42.2217 11.7231 39.1479 11.6677M35.2062 18.6461C35.1878 18.4984 35.1785 18.3414 35.1785 18.1845C35.2155 16.0522 36.9694 14.3445 39.1016 14.3814C40.2647 14.3999 41.2984 14.9261 41.9907 15.7568L35.2062 18.6461ZM49.1724 8.71375V21.3876L51.3694 22.3014L50.3262 24.803L48.1478 23.8984C47.6586 23.6861 47.3262 23.363 47.077 22.9938C46.837 22.6245 46.6524 22.1075 46.6524 21.4245V8.71375H49.1724ZM57.1017 14.5753C57.4895 14.4461 57.8955 14.3814 58.3295 14.3814C60.2032 14.3814 61.7541 15.7107 62.1141 17.4738L64.7632 16.9291C64.154 13.9291 61.5049 11.6768 58.3295 11.6768C57.6003 11.6768 56.8987 11.7968 56.2526 12.0091L57.1017 14.5753ZM53.9724 23.1507L55.7631 21.1291C54.9602 20.4184 54.4616 19.3845 54.4616 18.2307C54.4616 17.0768 54.9693 16.043 55.7631 15.3414L53.9724 13.3199C52.6155 14.5199 51.757 16.283 51.757 18.2399C51.757 20.1968 52.6155 21.9507 53.9724 23.1507ZM62.1141 19.0152C61.7541 20.7784 60.194 22.1075 58.3295 22.1075C57.9049 22.1075 57.4895 22.0337 57.1017 21.9045L56.2433 24.4707C56.8987 24.6921 57.6002 24.8122 58.3295 24.8122C61.5049 24.8122 64.1541 22.5599 64.7632 19.5599L62.1141 19.0152Z" fill="black"/>
</svg>
