<svg width="73" height="31" viewBox="0 0 73 31" fill="none" xmlns="http://www.w3.org/2000/svg">
<path d="M27.508 24.4396L30.5873 6.36942H35.5126L32.431 24.4396H27.508ZM50.2258 6.75895C49.2502 6.39286 47.721 6 45.8116 6C40.9446 6 37.5165 8.45086 37.4872 11.9634C37.4598 14.56 39.9347 16.0086 41.8029 16.8728C43.7202 17.7588 44.3646 18.3235 44.3554 19.1143C44.3431 20.3257 42.8244 20.8788 41.4086 20.8788C39.4374 20.8788 38.39 20.6049 36.7724 19.9305L36.1375 19.6434L35.4464 23.6885C36.5969 24.1931 38.7241 24.6299 40.933 24.6526C46.1105 24.6526 49.4717 22.2297 49.5099 18.4786C49.5282 16.4229 48.2161 14.8588 45.3744 13.569C43.6529 12.733 42.5985 12.1752 42.6097 11.3287C42.6097 10.5776 43.5021 9.77446 45.4306 9.77446C47.041 9.74945 48.208 10.1007 49.117 10.4668L49.5583 10.6753L50.2258 6.75895ZM62.9006 6.36914H59.0947C57.9158 6.36914 57.0333 6.69092 56.5157 7.86766L49.2007 24.4277H54.3728C54.3728 24.4277 55.2183 22.2011 55.4095 21.7122C55.9747 21.7122 60.9992 21.7199 61.7175 21.7199C61.8648 22.3526 62.3167 24.4277 62.3167 24.4277H66.8871L62.9006 6.36858V6.36914ZM56.8621 18.0378C57.2695 16.9966 58.8246 12.9863 58.8246 12.9863C58.7956 13.0344 59.2289 11.9401 59.4775 11.2616L59.8104 12.8196C59.8104 12.8196 60.7535 17.133 60.9507 18.0375H56.8621V18.0378ZM23.3267 6.36914L18.5046 18.6922L17.9909 16.188C17.0932 13.3012 14.2963 10.1735 11.1696 8.60769L15.5789 24.4108L20.7901 24.405L28.5443 6.36895L23.3267 6.36886" fill="#0E4595"/>
<path d="M14.0052 6.36849H6.06295L6 6.74446C12.179 8.24022 16.2674 11.8549 17.9649 16.1986L16.2379 7.89461C15.9399 6.75037 15.0751 6.40883 14.0054 6.36895" fill="#F2AE14"/>
</svg>
